<svg width="60" height="60" viewBox="0 0 60 60" fill="none" xmlns="http://www.w3.org/2000/svg">
<g id="Google">
<g id="Vector">
<path d="M30.3792 21.8186C32.8164 21.8186 34.4605 22.8714 35.3979 23.7511L39.0609 20.1746C36.8111 18.0835 33.8836 16.8 30.3792 16.8C25.3029 16.8 20.9188 19.7131 18.7845 23.953L22.9811 27.2122C24.0338 24.0828 26.947 21.8186 30.3792 21.8186Z" fill="#EA4335"/>
<path d="M42.8392 30.0676C42.8392 29.0004 42.7527 28.2217 42.5652 27.4141H30.3792V32.2308H37.5322C37.388 33.4278 36.6092 35.2304 34.8787 36.4418L38.9743 39.6145C41.426 37.3504 42.8392 34.0191 42.8392 30.0676Z" fill="#4285F4"/>
<path d="M22.9955 32.3462C22.7215 31.5386 22.5628 30.6733 22.5628 29.7792C22.5628 28.885 22.7215 28.0198 22.9811 27.2122L18.7845 23.953C17.9048 25.7124 17.4 27.6881 17.4 29.7792C17.4 31.8702 17.9047 33.846 18.7844 35.6054L22.9955 32.3462Z" fill="#FBBC05"/>
<path d="M30.3792 42.7583C33.8836 42.7583 36.8255 41.6047 38.9743 39.6145L34.8787 36.4418C33.7826 37.2062 32.3116 37.7397 30.3792 37.7397C26.9469 37.7397 24.0338 35.4756 22.9955 32.3462L18.7988 35.6054C20.9332 39.8452 25.3029 42.7583 30.3792 42.7583Z" fill="#34A853"/>
</g>
</g>
</svg>
